<svg width="33" height="32" viewBox="0 0 33 32" fill="none" xmlns="http://www.w3.org/2000/svg">
<path d="M10.3029 12.1031H21.6169C22.0984 12.1031 22.4877 12.4904 22.4877 12.9694C22.4877 13.4477 22.0984 13.835 21.6169 13.835H10.3029C9.82234 13.835 9.43295 13.4477 9.43295 12.9694C9.43295 12.4904 9.82234 12.1031 10.3029 12.1031Z" fill="#919191"/>
<path d="M10.303 10.3711H16.3954C16.8759 10.3711 17.2652 9.9837 17.2652 9.50473C17.2652 9.02659 16.8759 8.63923 16.3954 8.63923H10.303C9.82151 8.63923 9.43221 9.02659 9.43221 9.50473C9.43221 9.9837 9.82151 10.3711 10.303 10.3711Z" fill="#919191"/>
<path d="M10.3027 15.567H18.4837C18.9652 15.567 19.3545 15.9544 19.3545 16.4334C19.3545 16.9115 18.9652 17.299 18.4837 17.299H10.3027C9.82215 17.299 9.43276 16.9115 9.43276 16.4334C9.43276 15.9544 9.82215 15.567 10.3027 15.567Z" fill="#919191"/>
<path d="M15.1766 19.031H10.3031C9.8216 19.031 9.4323 19.4184 9.4323 19.8973C9.4323 20.3756 9.8216 20.7628 10.3031 20.7628H15.1766C15.6579 20.7628 16.0473 20.3756 16.0473 19.8973C16.0473 19.4184 15.6579 19.031 15.1766 19.031Z" fill="#919191"/>
<path d="M10.3031 22.4949H15.1766C15.6579 22.4949 16.0473 22.8822 16.0473 23.3612C16.0473 23.8393 15.6579 24.2268 15.1766 24.2268H10.3031C9.8216 24.2268 9.4323 23.8393 9.4323 23.3612C9.4323 22.8822 9.8216 22.4949 10.3031 22.4949Z" fill="#919191"/>
<path d="M23.6119 17.1409C24.078 18.131 23.7808 18.3576 23.297 18.3576C23.1262 18.3576 23.0311 18.2288 22.9196 18.0781C22.7624 17.8653 22.5728 17.6087 22.0927 17.608L22.0911 17.6084V22.7544C22.0911 23.6705 21.0961 24.4116 19.8692 24.4116C18.6414 24.4116 17.6472 23.6705 17.6472 22.7544C17.6472 21.8382 18.6414 21.0956 19.8692 21.0956H20.9798V16.1216C20.9798 15.8171 21.2276 15.5687 21.5354 15.5687C21.5486 15.5675 22.8189 15.4563 23.6119 17.1409Z" fill="#919191"/>
<path fill-rule="evenodd" clip-rule="evenodd" d="M27.2713 7.87045L22.4592 3.02215C22.2335 2.79491 21.9269 2.66669 21.6083 2.66669H6.97084C6.10148 2.66669 5.16656 3.29889 5.16656 4.68698V27.3131C5.16656 28.4274 6.06577 29.3334 7.17182 29.3334H25.6188C26.7249 29.3334 27.6241 28.4274 27.6241 27.3131V8.72757C27.6241 8.40586 27.4968 8.0976 27.2713 7.87045ZM25.9685 27.6906H6.82217V4.30931H19.8761V9.07193C19.8761 9.78956 20.4608 10.3714 21.1821 10.3714H25.9685V27.6906ZM25.9484 8.72881H21.5318V4.32455L25.9484 8.72881Z" fill="#919191"/>
</svg>
