<svg width="24" height="24" viewBox="0 0 24 24" fill="none" xmlns="http://www.w3.org/2000/svg">
<path d="M5.0025 20C4.7425 20 4.4925 19.9001 4.2925 19.7102C3.9025 19.3204 3.9025 18.6908 4.2925 18.3011L8.0225 14.5734C8.4125 14.1837 9.0425 14.1837 9.4325 14.5734C9.8225 14.9632 9.8225 15.5928 9.4325 15.9825L5.7025 19.7102C5.5125 19.9001 5.2625 20 5.0025 20Z" fill="#DADADA"/>
<path d="M13.1025 17.7913C9.30252 17.7913 6.20251 14.7032 6.20251 10.8956C6.20251 7.08805 9.29252 4 13.1025 4C16.9125 4 20.0025 7.08805 20.0025 10.8956C20.0025 14.7032 16.9125 17.7913 13.1025 17.7913ZM13.1025 6.00873C10.4025 6.00873 8.20251 8.20734 8.20251 10.9056C8.20251 13.6039 10.4025 15.8026 13.1025 15.8026C15.8025 15.8026 18.0025 13.6039 18.0025 10.9056C18.0025 8.20734 15.8025 6.00873 13.1025 6.00873Z" fill="#DADADA"/>
</svg>
