<svg width="144" height="24" viewBox="0 0 144 24" fill="none" xmlns="http://www.w3.org/2000/svg">
<path d="M130.154 9.23077L130.155 13.8462L134.769 11.5465L130.154 9.23077Z" fill="#919191"/>
<path fill-rule="evenodd" clip-rule="evenodd" d="M132 24C138.627 24 144 18.6274 144 12C144 5.37258 138.627 0 132 0C125.373 0 120 5.37258 120 12C120 18.6274 125.373 24 132 24ZM140.142 8.85116C140.142 8.85116 139.979 7.76587 139.481 7.28795C138.912 6.72244 138.28 6.66423 137.923 6.63135C137.884 6.62776 137.848 6.62447 137.816 6.62086C135.491 6.46154 132.004 6.46154 132.004 6.46154H131.996C131.996 6.46154 128.509 6.46154 126.184 6.62086C126.152 6.62447 126.116 6.62776 126.077 6.63135C125.72 6.66423 125.089 6.72242 124.519 7.28795C124.021 7.76587 123.858 8.85116 123.858 8.85116C123.858 8.85116 123.692 10.1256 123.692 11.4001V12.5949C123.692 13.8694 123.858 15.1438 123.858 15.1438C123.858 15.1438 124.021 16.2291 124.519 16.7071C125.043 17.2271 125.703 17.3024 126.124 17.3504C126.211 17.3603 126.288 17.369 126.351 17.3803C127.68 17.5011 132 17.5385 132 17.5385C132 17.5385 135.491 17.5335 137.816 17.3742C137.848 17.3706 137.884 17.3673 137.923 17.3637C138.28 17.3308 138.912 17.2726 139.481 16.7071C139.979 16.2291 140.142 15.1438 140.142 15.1438C140.142 15.1438 140.308 13.8694 140.308 12.5949V11.4001C140.308 10.1256 140.142 8.85116 140.142 8.85116Z" fill="#919191"/>
<path d="M91.9977 14.4633C90.6386 14.4633 89.5369 13.3616 89.5369 12.0025C89.5369 10.6435 90.6386 9.54177 91.9977 9.54177C93.3567 9.54177 94.4584 10.6435 94.4584 12.0025C94.4584 13.3616 93.3567 14.4633 91.9977 14.4633Z" fill="#919191"/>
<path fill-rule="evenodd" clip-rule="evenodd" d="M91.9977 5.94997C93.9688 5.94997 94.2023 5.9575 94.9807 5.99302C95.7005 6.02584 96.0914 6.1461 96.3515 6.2472C96.6961 6.38112 96.942 6.54109 97.2003 6.79944C97.4587 7.05775 97.6187 7.30367 97.7526 7.64826C97.8537 7.90839 97.9739 8.29927 98.0068 9.01904C98.0423 9.79747 98.0498 10.031 98.0498 12.0021C98.0498 13.9733 98.0423 14.2068 98.0068 14.9852C97.9739 15.705 97.8537 16.0958 97.7526 16.356C97.6187 16.7006 97.4587 16.9465 97.2003 17.2048C96.942 17.4631 96.6961 17.6231 96.3515 17.757C96.0914 17.8581 95.7005 17.9784 94.9807 18.0112C94.2024 18.0467 93.969 18.0543 91.9977 18.0543C90.0264 18.0543 89.7929 18.0467 89.0146 18.0112C88.2948 17.9784 87.9039 17.8581 87.6438 17.757C87.2992 17.6231 87.0533 17.4631 86.795 17.2048C86.5367 16.9465 86.3767 16.7006 86.2427 16.356C86.1417 16.0958 86.0214 15.705 85.9886 14.9852C85.9531 14.2068 85.9455 13.9733 85.9455 12.0021C85.9455 10.031 85.9531 9.79747 85.9886 9.01904C86.0214 8.29927 86.1417 7.90839 86.2427 7.64826C86.3767 7.30367 86.5366 7.05775 86.795 6.79944C87.0533 6.54109 87.2992 6.38112 87.6438 6.2472C87.9039 6.1461 88.2948 6.02584 89.0146 5.99302C89.793 5.9575 90.0265 5.94997 91.9977 5.94997ZM88.2068 12.0022C88.2068 9.90847 89.904 8.21124 91.9977 8.21124C94.0914 8.21124 95.7886 9.90847 95.7886 12.0022C95.7886 14.0958 94.0914 15.793 91.9977 15.793C89.904 15.793 88.2068 14.0958 88.2068 12.0022ZM95.9384 8.94768C96.4276 8.94768 96.8243 8.55108 96.8243 8.06182C96.8243 7.57256 96.4276 7.17593 95.9384 7.17593C95.4491 7.17593 95.0525 7.57256 95.0525 8.06182C95.0525 8.55108 95.4491 8.94768 95.9384 8.94768Z" fill="#919191"/>
<path fill-rule="evenodd" clip-rule="evenodd" d="M104 12C104 18.6274 98.6274 24 92 24C85.3726 24 80 18.6274 80 12C80 5.37258 85.3726 0 92 0C98.6274 0 104 5.37258 104 12ZM88.954 4.66432C89.7414 4.62839 89.9928 4.61989 91.9977 4.61989C94.0026 4.61989 94.254 4.62839 95.0414 4.66432C95.8271 4.70016 96.3638 4.82496 96.8333 5.00747C97.3188 5.1961 97.7305 5.44852 98.1409 5.85892C98.5513 6.26936 98.8038 6.68105 98.9924 7.1665C99.1749 7.63607 99.2997 8.17271 99.3355 8.95847C99.3715 9.74587 99.38 9.99727 99.38 12.0022C99.38 14.0071 99.3715 14.2585 99.3355 15.0459C99.2997 15.8316 99.1749 16.3683 98.9924 16.8379C98.8038 17.3233 98.5513 17.735 98.1409 18.1454C97.7305 18.5558 97.3188 18.8083 96.8333 18.9969C96.3638 19.1794 95.8271 19.3042 95.0414 19.34C94.254 19.376 94.0026 19.3845 91.9977 19.3845C89.9928 19.3845 89.7414 19.376 88.954 19.34C88.1682 19.3042 87.6316 19.1794 87.162 18.9969C86.6765 18.8083 86.2648 18.5558 85.8544 18.1454C85.444 17.735 85.1916 17.3233 85.003 16.8379C84.8205 16.3683 84.6956 15.8316 84.6598 15.0459C84.6239 14.2585 84.6154 14.0071 84.6154 12.0022C84.6154 9.99727 84.6239 9.74587 84.6598 8.95847C84.6956 8.17271 84.8205 7.63607 85.003 7.1665C85.1916 6.68105 85.444 6.26936 85.8544 5.85892C86.2648 5.44852 86.6765 5.1961 87.162 5.00747C87.6316 4.82496 88.1682 4.70016 88.954 4.66432Z" fill="#919191"/>
<path fill-rule="evenodd" clip-rule="evenodd" d="M57.5234 9.82289C57.5277 9.93432 57.5294 10.0449 57.5294 10.158C57.5294 13.584 54.922 17.5346 50.1537 17.5346C48.6889 17.5346 47.3269 17.1069 46.18 16.3697C46.3831 16.3937 46.5889 16.4057 46.798 16.4057C48.0126 16.4057 49.1303 15.9917 50.0183 15.2957C48.8843 15.276 47.926 14.5252 47.596 13.4957C47.7546 13.5266 47.9174 13.5429 48.0846 13.5429C48.3203 13.5429 48.5483 13.5103 48.7677 13.4512C47.5806 13.2129 46.6866 12.1646 46.6866 10.9097V10.8763C47.0371 11.07 47.4366 11.1875 47.8626 11.2003C47.1657 10.734 46.708 9.94203 46.708 9.04289C46.708 8.56717 46.8357 8.12317 47.0594 7.73832C48.3374 9.30775 50.2489 10.3397 52.4029 10.4486C52.3591 10.2592 52.336 10.0595 52.336 9.85717C52.336 8.42489 53.4974 7.26517 54.9289 7.26517C55.6746 7.26517 56.3474 7.57975 56.8206 8.08375C57.412 7.96717 57.9666 7.75117 58.468 7.45375C58.2734 8.05889 57.8629 8.56717 57.3272 8.88775C57.8517 8.82689 58.3523 8.68717 58.816 8.4806C58.468 9.00003 58.03 9.45603 57.5234 9.82289ZM52 0C45.3726 0 40 5.37343 40 12C40 18.6266 45.3726 24 52 24C58.0429 24 63.04 19.5326 63.8749 13.7211C63.9554 13.326 63.9931 12.9171 63.9863 12.4954C63.9949 12.3317 64 12.1663 64 12C64 5.37343 58.6283 0 52 0Z" fill="#919191"/>
<path fill-rule="evenodd" clip-rule="evenodd" d="M15.4817 7.11358H13.7974C13.464 7.11358 13.1271 7.46244 13.1271 7.7213V9.45273H15.4774C15.3831 10.7804 15.1903 11.995 15.1903 11.995H13.1151V19.5224H10.0234V11.995H8.51829V9.46216H10.0234V7.39044C10.0234 7.01158 9.94715 4.47701 13.1914 4.47701H15.4817V7.11358ZM12 0C5.37257 0 0 5.37343 0 11.9991C0 18.6274 5.37257 24 12 24C18.6283 24 24 18.6274 24 11.9991C24 5.37343 18.6283 0 12 0Z" fill="#919191"/>
</svg>
