<svg width="32" height="32" viewBox="0 0 32 32" fill="none" xmlns="http://www.w3.org/2000/svg">
<path fill-rule="evenodd" clip-rule="evenodd" d="M2.6665 16C2.6665 8.63658 8.63554 2.66669 15.9998 2.66669C23.3641 2.66669 29.3332 8.63658 29.3332 16C29.3332 23.3635 23.3641 29.3334 15.9998 29.3334C8.63554 29.3334 2.6665 23.3635 2.6665 16ZM8.05296 24.2722C10.1173 26.2555 12.9171 27.4794 15.9998 27.4794C22.3293 27.4794 27.4792 22.3295 27.4792 16C27.4792 9.67146 22.3293 4.52161 15.9998 4.52161C12.9614 4.52161 10.1975 5.71046 8.14235 7.64488H16.9399C17.4606 7.64488 17.8836 8.06697 17.8836 8.58767C17.8836 9.10837 17.4606 9.53138 16.9399 9.53138H6.52404C6.13697 10.0963 5.80059 10.6981 5.51859 11.3294H20.4686C20.9902 11.3294 21.4133 11.7524 21.4133 12.2731C21.4133 12.7938 20.9902 13.2159 20.4686 13.2159H4.86426C4.71865 13.7993 4.61912 14.4001 4.56658 15.0148H24.0822C24.6029 15.0148 25.0259 15.4369 25.0259 15.9576C25.0259 16.4783 24.6029 16.9013 24.0822 16.9013H4.55921C4.60806 17.5151 4.7039 18.116 4.8449 18.6994H22.2123C22.733 18.6994 23.156 19.1224 23.156 19.6431C23.156 20.1647 22.733 20.5868 22.2123 20.5868H5.47988C5.75544 21.2171 6.08537 21.818 6.46506 22.3848H18.6835C19.2042 22.3848 19.6272 22.8069 19.6272 23.3276C19.6272 23.8492 19.2042 24.2722 18.6835 24.2722H8.05296Z" fill="#919191"/>
</svg>
