<svg width="24" height="24" viewBox="0 0 24 24" fill="none" xmlns="http://www.w3.org/2000/svg">
<path fill-rule="evenodd" clip-rule="evenodd" d="M12 5C10.3841 5 9.08553 6.29949 9.08553 7.88849C9.08553 9.47749 10.3841 10.777 12 10.777C13.6159 10.777 14.9145 9.4775 14.9145 7.88849C14.9145 6.29949 13.6159 5 12 5ZM7.08553 7.88849C7.08553 5.18238 9.29212 3 12 3C14.7079 3 16.9145 5.18239 16.9145 7.88849C16.9145 10.5946 14.7079 12.777 12 12.777C9.29212 12.777 7.08553 10.5946 7.08553 7.88849ZM4 17.8041C4 15.5301 5.85861 13.6934 8.13158 13.6934H15.7418C18.07 13.6934 20 15.585 20 17.9299V19.3252C20 20.2612 19.2467 21 18.3207 21H5.67928C4.75336 21 4 20.2612 4 19.3252V17.8041ZM8.13158 15.6934C6.9506 15.6934 6 16.6472 6 17.8041V19H18V17.9299C18 16.7067 16.9826 15.6934 15.7418 15.6934H8.13158Z" fill="#DADADA"/>
</svg>
